<svg width="30" height="30" viewBox="0 0 30 30" fill="none" xmlns="http://www.w3.org/2000/svg">
<path d="M21.9477 13.3403C19.6115 13.3403 19.286 15.6724 19.286 15.6724H24.2539C24.2542 15.672 24.2836 13.3403 21.9477 13.3403Z" fill="white"/>
<path d="M10.6763 15.6719H6.27368V19.7139H10.4727C11.1043 19.6964 12.2705 19.4982 12.2705 17.7502C12.2705 15.6515 10.6763 15.6719 10.6763 15.6719Z" fill="white"/>
<path d="M11.7458 11.5382C11.7458 9.96484 10.676 9.96484 10.676 9.96484H10.1089H6.27368V13.3395H10.4031C11.1168 13.3398 11.7458 13.1117 11.7458 11.5382Z" fill="white"/>
<path d="M28.4043 0H1.59574C0.714574 0 0 0.714255 0 1.59574V28.4043C0 29.2857 0.714574 30 1.59574 30H28.4043C29.2857 30 30 29.2857 30 28.4043V1.59574C30 0.714255 29.2857 0 28.4043 0ZM18.6348 8.1683H24.8745V10.0309H18.6348V8.1683ZM15.4803 17.9378C15.4803 22.5536 10.6762 22.4014 10.6762 22.4014H6.27383H6.14457H2.80628V7.27755H6.14457H6.27383H10.6765C13.0679 7.27755 14.956 8.59787 14.956 11.3043C14.956 14.0106 12.6485 14.1823 12.6485 14.1823C15.6906 14.1823 15.4803 17.9378 15.4803 17.9378ZM27.1529 17.6904H19.3152C19.3152 20.5005 21.9769 20.3228 21.9769 20.3228C24.4909 20.3228 24.4024 18.6957 24.4024 18.6957H27.0641C27.0641 23.0135 21.8888 22.7183 21.8888 22.7183C15.6782 22.7183 16.0771 16.9363 16.0771 16.9363C16.0771 16.9363 16.072 11.1255 21.8885 11.1255C28.0104 11.1252 27.1529 17.6904 27.1529 17.6904Z" fill="white"/>
</svg>
