<svg width="36" height="34" viewBox="0 0 36 34" fill="none" xmlns="http://www.w3.org/2000/svg">
<path d="M25.7247 0.156006H9.5479C4.2831 0.156006 0 4.18212 0 9.13103V24.337C0 29.2859 4.2831 33.312 9.5479 33.312H25.7247C30.9892 33.312 35.2723 29.2859 35.2723 24.337V9.13103C35.2723 4.18212 30.9892 0.156006 25.7247 0.156006ZM33.2045 24.337C33.2045 28.2141 29.849 31.3682 25.7247 31.3682H9.5479C5.42331 31.3682 2.06782 28.2141 2.06782 24.337V9.13103C2.06782 5.25391 5.42331 2.09975 9.5479 2.09975H25.7247C29.849 2.09975 33.2045 5.25391 33.2045 9.13103V24.337Z" fill="#BDBDBD"/>
<path d="M15.0977 16.2336C16.2301 15.7702 16.7968 14.7743 16.7968 13.2459C16.7968 11.0414 15.4575 9.93896 12.7788 9.93896H8.92089C8.61411 9.93896 8.34769 10.0078 8.12138 10.1456C7.89452 10.2835 7.78149 10.4714 7.78149 10.7092V22.9226C7.78149 23.1232 7.88806 23.2985 8.10146 23.4488C8.31432 23.5991 8.58774 23.6742 8.92089 23.6742H13.1588C14.3846 23.6742 15.3574 23.358 16.0772 22.7253C16.7968 22.0929 17.1566 21.0814 17.1566 19.6908V19.2962C17.1566 18.4195 16.983 17.7524 16.6367 17.295C16.2901 16.8379 15.7772 16.4843 15.0977 16.2336ZM10.3601 12.081H12.5789C13.0853 12.081 13.4817 12.2219 13.7683 12.5037C14.0546 12.7855 14.1981 13.1708 14.1981 13.6592C14.1981 14.1604 14.0614 14.555 13.7882 14.8431C13.5151 15.1312 13.1187 15.2752 12.599 15.2752H10.3601V12.081ZM14.5579 19.4842C14.5579 20.8496 13.9115 21.5324 12.619 21.5324H10.3601V17.1918H12.619C13.2586 17.1918 13.7414 17.3487 14.0681 17.6616C14.3945 17.9747 14.5579 18.4822 14.5579 19.1836V19.4842Z" fill="#BDBDBD"/>
<path d="M26.2917 19.8412C26.5713 19.8412 26.7979 19.8288 26.9712 19.804C27.1443 19.7792 27.3343 19.717 27.5409 19.6178C27.7473 19.5186 27.9007 19.3479 28.0006 19.1061C28.1007 18.8642 28.1507 18.5574 28.1507 18.185C28.1507 17.1658 27.7473 16.3194 26.9414 15.6463C26.1348 14.9732 25.1653 14.6362 24.0329 14.6362C22.82 14.6362 21.7872 15.0061 20.9344 15.745C20.0816 16.4841 19.655 17.3675 19.655 18.3945V19.9914C19.655 21.1442 20.105 22.0743 21.0043 22.7819C21.904 23.4896 23.0665 23.8435 24.4925 23.8435C25.492 23.8435 26.3281 23.6715 27.0011 23.3267C27.6739 22.9825 28.0108 22.6346 28.0108 22.2838C28.0108 22.0584 27.9174 21.8234 27.7309 21.5793C27.5442 21.3349 27.3111 21.2127 27.0312 21.2127C26.8843 21.2127 26.5646 21.3321 26.0716 21.5699C25.5786 21.8079 25.0789 21.9268 24.5724 21.9268C23.866 21.9268 23.2998 21.7609 22.8735 21.429C22.4467 21.0971 22.2339 20.6618 22.2339 20.123V19.8412H26.2917ZM22.2339 17.9217C22.2339 17.5124 22.4069 17.1818 22.7535 16.9303C23.0999 16.6789 23.5062 16.5529 23.9728 16.5529C24.4656 16.5529 24.8824 16.6819 25.2223 16.9389C25.5619 17.1965 25.732 17.5301 25.732 17.9394C25.732 18.1266 25.6884 18.2523 25.602 18.3166C25.5151 18.3811 25.3652 18.4132 25.1523 18.4132H22.2339V17.9217Z" fill="#BDBDBD"/>
<path d="M27.1698 11.6741H20.7032C20.1321 11.6741 19.669 12.1094 19.669 12.6459C19.669 13.1827 20.1321 13.618 20.7032 13.618H27.1698C27.7409 13.618 28.204 13.1827 28.204 12.6459C28.204 12.1094 27.7409 11.6741 27.1698 11.6741Z" fill="#BDBDBD"/>
</svg>
