<svg width="20" height="35" viewBox="0 0 20 35" fill="none" xmlns="http://www.w3.org/2000/svg">
<path d="M12.3537 34.0761H6.71076C5.76821 34.0761 5.00148 33.3397 5.00148 32.4346V20.2114H1.70928C0.766728 20.2114 0 19.4748 0 18.5699V13.3322C0 12.427 0.766728 11.6907 1.70928 11.6907H5.00148V9.06786C5.00148 6.46722 5.85182 4.25463 7.46028 2.66968C9.076 1.07749 11.334 0.236084 13.9901 0.236084L18.2937 0.242797C19.2346 0.244346 20 0.980671 20 1.8843V6.74735C20 7.65252 19.2335 8.38885 18.2913 8.38885L15.3937 8.38988C14.51 8.38988 14.285 8.56002 14.2369 8.61217C14.1576 8.69866 14.0632 8.94316 14.0632 9.61829V11.6904H18.0735C18.3754 11.6904 18.6679 11.762 18.9193 11.8967C19.4615 12.1877 19.7986 12.7379 19.7986 13.3325L19.7965 18.5701C19.7965 19.4748 19.0298 20.2111 18.0872 20.2111H14.0632V32.4346C14.0632 33.3397 13.2962 34.0761 12.3537 34.0761ZM7.06724 32.0922H11.9972V19.3232C11.9972 18.7188 12.5093 18.2273 13.1384 18.2273H17.7307L17.7326 13.6745H13.1382C12.5091 13.6745 11.9972 13.183 11.9972 12.5786V9.61829C11.9972 8.84324 12.0792 7.96182 12.6884 7.29933C13.4245 6.49846 14.5845 6.40604 15.3932 6.40604L17.9342 6.405V2.22612L13.9885 2.21993C9.71987 2.21993 7.06724 4.84406 7.06724 9.06786V12.5786C7.06724 13.1827 6.55537 13.6745 5.92628 13.6745H2.06576V18.2273H5.92628C6.55537 18.2273 7.06724 18.7188 7.06724 19.3232V32.0922ZM18.2896 2.22664H18.2899H18.2896Z" fill="#BDBDBD"/>
</svg>
