<svg width="30" height="30" viewBox="0 0 30 30" fill="none" xmlns="http://www.w3.org/2000/svg">
<g clip-path="url(#clip0)">
<path d="M28.3423 0.000976562H1.65574C0.741924 0.000976562 0 0.741431 0 1.65675V28.3437C0 29.259 0.741924 30.0005 1.65574 30.0005H16.023V18.3829H12.1138V13.8547H16.023V10.5155C16.023 6.64135 18.3885 4.53064 21.8453 4.53064C23.5025 4.53064 24.9236 4.65462 25.338 4.70847V8.75799L22.9404 8.75898C21.0609 8.75898 20.6983 9.65257 20.6983 10.9631V13.8532H25.1824L24.5961 18.3809H20.6978V29.999H28.3418C29.2566 29.999 29.999 29.2566 29.999 28.3437V1.65576C29.9985 0.741431 29.2571 0.000976562 28.3423 0.000976562Z" fill="white"/>
</g>
<defs>
<clipPath id="clip0">
<rect width="30" height="30" fill="white"/>
</clipPath>
</defs>
</svg>
