<svg width="30" height="30" viewBox="0 0 30 30" fill="none" xmlns="http://www.w3.org/2000/svg">
<path d="M21.7208 0H8.27869C3.71382 0 0 3.714 0 8.27887V21.721C0 26.286 3.71382 29.9998 8.27869 29.9998H21.7208C26.286 29.9998 29.9998 26.2858 29.9998 21.721V8.27887C30 3.714 26.286 0 21.7208 0ZM27.3383 21.721C27.3383 24.8183 24.8183 27.3381 21.721 27.3381H8.27869C5.1815 27.3383 2.66173 24.8183 2.66173 21.721V8.27887C2.66173 5.18168 5.1815 2.66173 8.27869 2.66173H21.7208C24.8181 2.66173 27.3381 5.18168 27.3381 8.27887V21.721H27.3383Z" fill="white"/>
<path d="M15.0001 7.27002C10.7376 7.27002 7.2699 10.7377 7.2699 15.0002C7.2699 19.2625 10.7376 22.7301 15.0001 22.7301C19.2626 22.7301 22.7303 19.2625 22.7303 15.0002C22.7303 10.7377 19.2626 7.27002 15.0001 7.27002ZM15.0001 20.0681C12.2055 20.0681 9.93163 17.7947 9.93163 15C9.93163 12.2052 12.2053 9.93157 15.0001 9.93157C17.7949 9.93157 20.0686 12.2052 20.0686 15C20.0686 17.7947 17.7947 20.0681 15.0001 20.0681Z" fill="white"/>
<path d="M23.0543 5.01318C22.5415 5.01318 22.0377 5.2208 21.6756 5.58457C21.3116 5.94656 21.1024 6.45052 21.1024 6.96512C21.1024 7.47812 21.3118 7.9819 21.6756 8.34567C22.0376 8.70766 22.5415 8.91705 23.0543 8.91705C23.5689 8.91705 24.0711 8.70766 24.4349 8.34567C24.7987 7.9819 25.0063 7.47795 25.0063 6.96512C25.0063 6.45052 24.7987 5.94656 24.4349 5.58457C24.0729 5.2208 23.5689 5.01318 23.0543 5.01318Z" fill="white"/>
</svg>
