<svg width="36" height="34" viewBox="0 0 36 34" fill="none" xmlns="http://www.w3.org/2000/svg">
<path d="M25.7244 0H9.5479C4.2831 0 0 4.02612 0 8.97504V24.1812C0 29.1299 4.2831 33.156 9.5479 33.156H25.7247C30.9892 33.156 35.2723 29.1299 35.2723 24.1812V8.97504C35.2723 4.02612 30.9892 0 25.7244 0V0ZM33.2045 24.1812C33.2045 28.0581 29.849 31.2123 25.7244 31.2123H9.5479C5.42331 31.2123 2.06782 28.0581 2.06782 24.1812V8.97504C2.06782 5.09791 5.42331 1.94375 9.5479 1.94375H25.7247C29.849 1.94375 33.2045 5.09791 33.2045 8.97504V24.1812Z" fill="#BDBDBD"/>
<path d="M17.6362 7.51208C12.3181 7.51208 7.9917 11.5789 7.9917 16.5779C7.9917 21.577 12.3181 25.6438 17.6362 25.6438C22.9543 25.6438 27.2807 21.577 27.2807 16.5779C27.2807 11.5789 22.9543 7.51208 17.6362 7.51208ZM17.6362 23.7001C13.4586 23.7001 10.0595 20.5052 10.0595 16.5779C10.0595 12.651 13.4586 9.45584 17.6362 9.45584C21.8141 9.45584 25.2129 12.651 25.2129 16.5779C25.2129 20.5052 21.8141 23.7001 17.6362 23.7001Z" fill="#BDBDBD"/>
<path d="M27.5113 4.29248C25.9397 4.29248 24.6614 5.4943 24.6614 6.97134C24.6614 8.44863 25.9397 9.65045 27.5113 9.65045C29.0829 9.65045 30.3614 8.44863 30.3614 6.97134C30.3614 5.49405 29.0829 4.29248 27.5113 4.29248ZM27.5113 7.70645C27.0802 7.70645 26.7293 7.37658 26.7293 6.97134C26.7293 6.56584 27.0802 6.23623 27.5113 6.23623C27.9427 6.23623 28.2936 6.56584 28.2936 6.97134C28.2936 7.37658 27.9427 7.70645 27.5113 7.70645Z" fill="#BDBDBD"/>
</svg>
