<svg width="44" height="68" viewBox="0 0 44 68" fill="none" xmlns="http://www.w3.org/2000/svg">
<path d="M24.2682 0H19.7336C14.4934 0.0151624 9.47311 2.10058 5.77379 5.7989C2.07447 9.49722 -0.00192283 14.5065 1.33613e-06 19.7282V48.2718C-0.00191922 53.4944 2.07521 58.5045 5.77569 62.203C9.47618 65.9015 14.4978 67.9863 19.7389 68H24.2736C29.5127 67.9834 34.5314 65.8973 38.2293 62.1991C41.9272 58.5009 44.0024 53.4924 44 48.2718V19.7282C44.0024 14.5067 41.9264 9.49738 38.2274 5.79901C34.5283 2.10064 29.5083 0.0151631 24.2682 0ZM41.985 48.2718C41.9864 52.9593 40.122 57.4561 36.8007 60.7757C33.4794 64.0953 28.9724 65.9668 24.2682 65.9796H19.7336C15.0291 65.9673 10.5216 64.096 7.19991 60.7763C3.87823 57.4567 2.01358 52.9596 2.01502 48.2718V19.7282C2.01358 15.0403 3.87823 10.5433 7.19991 7.22366C10.5216 3.90399 15.0291 2.03274 19.7336 2.02042H20.9907V12.008C19.9465 12.2409 19.013 12.8212 18.3438 13.6532C17.6747 14.4852 17.3097 15.5195 17.3091 16.5857V24.1753C17.3094 25.2416 17.6742 26.276 18.3435 27.1081C19.0127 27.9402 19.9463 28.5204 20.9907 28.753V33.2394H23.0111V28.7512C24.0551 28.5182 24.9884 27.9379 25.6572 27.1059C26.3261 26.2738 26.6907 25.2396 26.6909 24.1735V16.5839C26.6904 15.5179 26.3257 14.4839 25.6569 13.6519C24.988 12.8199 24.055 12.2395 23.0111 12.0062V2.01863H24.2682C28.9724 2.03143 33.4794 3.90288 36.8007 7.2225C40.122 10.5421 41.9864 15.0389 41.985 19.7264V48.2718ZM22 13.9121C22.7091 13.9135 23.3886 14.1953 23.8893 14.6956C24.39 15.1959 24.671 15.8738 24.6705 16.5803V24.1699C24.6798 24.5251 24.6176 24.8784 24.4876 25.2093C24.3575 25.5401 24.1624 25.8416 23.9136 26.096C23.6648 26.3505 23.3673 26.5527 23.0388 26.6908C22.7103 26.8289 22.3574 26.9 22.0009 26.9C21.6444 26.9 21.2915 26.8289 20.963 26.6908C20.6345 26.5527 20.337 26.3505 20.0882 26.096C19.8394 25.8416 19.6442 25.5401 19.5142 25.2093C19.3842 24.8784 19.322 24.5251 19.3313 24.1699V16.5803C19.3308 15.8741 19.6115 15.1965 20.1118 14.6962C20.6122 14.196 21.2912 13.914 22 13.9121ZM37.9424 48.2718C37.9438 51.89 36.505 55.361 33.9415 57.9235C31.378 60.4859 27.8992 61.9306 24.2682 61.9405V63.9609C28.4361 63.9496 32.4292 62.2914 35.3717 59.3502C38.3143 56.409 39.966 52.4249 39.9646 48.2718H37.9424ZM20.9907 35.9238H23.0111V39.9646H20.9907V35.9238Z" fill="#EB35FE"/>
</svg>
