<svg width="30" height="22" viewBox="0 0 30 22" fill="none" xmlns="http://www.w3.org/2000/svg">
<path d="M26.8834 0.147217H3.11673C1.41286 0.147217 0.0266113 1.53346 0.0266113 3.23733V18.7624C0.0266113 20.4662 1.41286 21.8525 3.11673 21.8525H26.8834C28.5873 21.8525 29.9735 20.4662 29.9735 18.7624V3.23733C29.9735 1.53346 28.5872 0.147217 26.8834 0.147217ZM25.8647 2.42414L15.7075 10.4817C15.2909 10.8122 14.7091 10.8122 14.2925 10.4817L4.13539 2.42414H25.8647ZM27.6965 18.7624C27.6965 19.2115 27.3325 19.5756 26.8833 19.5756H3.11673C2.66761 19.5756 2.30354 19.2115 2.30354 18.7624V3.87736L12.8775 12.2655C13.4787 12.7425 14.2326 13.0052 15.0001 13.0052C15.7676 13.0052 16.5215 12.7425 17.1227 12.2655L27.6966 3.87736V18.7624H27.6965Z" fill="#BDBDBD"/>
</svg>
