<svg width="30" height="22" viewBox="0 0 30 22" fill="none" xmlns="http://www.w3.org/2000/svg">
<path d="M26.8833 21.879H3.11668C1.39815 21.879 0 20.4808 0 18.7624V3.23729C0 1.51876 1.39815 0.120605 3.11668 0.120605H26.8833C28.6019 0.120605 30 1.51876 30 3.23729V18.7624C29.9999 20.4808 28.6019 21.879 26.8833 21.879ZM3.11668 0.173755C1.42744 0.173755 0.0531495 1.54809 0.0531495 3.23729V18.7624C0.0531495 20.4516 1.42744 21.8258 3.11668 21.8258H26.8833C28.5725 21.8258 29.9468 20.4516 29.9468 18.7624V3.23729C29.9468 1.54804 28.5726 0.173755 26.8833 0.173755H3.11668ZM26.8833 19.6021H3.11668C2.65365 19.6021 2.27692 19.2254 2.27692 18.7624V3.82231L12.8939 12.2446C13.4904 12.7179 14.2384 12.9785 15 12.9785C15.7616 12.9785 16.5096 12.7179 17.1061 12.2446L27.723 3.82231V18.7624C27.723 19.2254 27.3464 19.6021 26.8833 19.6021ZM2.33007 3.93233V18.7624C2.33007 19.1961 2.68293 19.549 3.11668 19.549H26.8833C27.317 19.549 27.6699 19.1961 27.6699 18.7624V3.93233L17.1392 12.2863C16.5333 12.767 15.7735 13.0317 15 13.0317C14.2265 13.0317 13.4667 12.767 12.8609 12.2863L2.33007 3.93233ZM14.9999 10.7561C14.7392 10.7561 14.4821 10.666 14.2759 10.5025L4.05908 2.39753H25.9409L15.724 10.5025C15.5178 10.666 15.2607 10.7561 14.9999 10.7561ZM4.21156 2.45068L14.3089 10.4608C14.5057 10.617 14.7511 10.7029 14.9999 10.7029C15.2487 10.7029 15.4941 10.6169 15.6909 10.4608L25.7883 2.45068H4.21156Z" fill="white"/>
</svg>
