<svg width="30" height="30" viewBox="0 0 30 30" fill="none" xmlns="http://www.w3.org/2000/svg">
<path d="M29.9364 23.2445C29.8516 22.9888 29.3117 22.6122 28.3173 22.1155C28.0478 21.9589 27.664 21.7462 27.1672 21.4762C26.6701 21.2063 26.2188 20.9576 25.8143 20.7303C25.4089 20.503 25.0291 20.2829 24.6742 20.0701C24.6175 20.0275 24.44 19.9034 24.1417 19.697C23.8431 19.4911 23.5913 19.3384 23.385 19.2388C23.1791 19.1397 22.9766 19.0899 22.7777 19.0899C22.4936 19.0899 22.1389 19.2924 21.7129 19.697C21.2869 20.102 20.8962 20.542 20.5412 21.0183C20.1862 21.4944 19.8097 21.9344 19.4124 22.3392C19.0145 22.7442 18.6876 22.9465 18.4322 22.9465C18.304 22.9465 18.1441 22.9108 17.9526 22.8403C17.7611 22.7693 17.6154 22.7085 17.5154 22.6594C17.4163 22.6094 17.2462 22.5103 17.0046 22.3606C16.7625 22.2115 16.6279 22.1297 16.5995 22.1155C14.6536 21.0357 12.9847 19.7999 11.5925 18.4083C10.2008 17.0159 8.96484 15.3472 7.88536 13.401C7.87118 13.3726 7.78931 13.2376 7.64028 12.9963C7.49103 12.7547 7.39155 12.5845 7.34185 12.4848C7.29215 12.3854 7.23177 12.2398 7.16088 12.048C7.08998 11.8563 7.05439 11.6966 7.05439 11.5686C7.05439 11.3131 7.25685 10.9862 7.6617 10.5885C8.06648 10.1909 8.50693 9.81438 8.9826 9.45953C9.45865 9.10467 9.89865 8.71392 10.3036 8.28795C10.7084 7.86176 10.9107 7.50683 10.9107 7.2228C10.9107 7.02407 10.861 6.82145 10.7617 6.61556C10.6623 6.40921 10.5096 6.15742 10.3036 5.85898C10.0975 5.5607 9.97321 5.38331 9.93052 5.32622C9.71768 4.97137 9.49776 4.59144 9.27022 4.18659C9.04268 3.78181 8.79432 3.33061 8.52432 2.83352C8.25454 2.33665 8.04163 1.95299 7.88521 1.68314C7.38834 0.689033 7.012 0.149031 6.75625 0.0641048C6.65677 0.0214926 6.50752 0 6.30886 0C5.92513 0 5.42453 0.0708959 4.80669 0.213135C4.18862 0.355151 3.70228 0.504107 3.34713 0.6606C2.6369 0.958736 1.88414 1.82516 1.08861 3.25957C0.364203 4.5945 0.00203705 5.91578 0.00203705 7.22242C0.00203705 7.60563 0.0268879 7.97847 0.0765897 8.34101C0.126291 8.70318 0.215098 9.11161 0.343084 9.56624C0.470845 10.0207 0.573906 10.3583 0.651816 10.5782C0.729802 10.7982 0.8754 11.1923 1.08853 11.7607C1.30137 12.3289 1.42936 12.6767 1.47197 12.8045C1.96906 14.1966 2.55854 15.4394 3.24026 16.5332C4.36191 18.3513 5.89259 20.2302 7.8314 22.1691C9.77029 24.108 11.6488 25.6386 13.467 26.7607C14.5607 27.4423 15.8039 28.0317 17.1958 28.5292C17.3237 28.5716 17.6715 28.6992 18.2395 28.9128C18.8077 29.1258 19.202 29.2714 19.422 29.3496C19.6421 29.4278 19.9797 29.5309 20.4339 29.6589C20.8889 29.7869 21.297 29.8757 21.6592 29.9257C22.0215 29.9748 22.3945 30.0001 22.7777 30.0001C24.0843 30.0001 25.4057 29.6377 26.7408 28.9134C28.1751 28.1181 29.0413 27.3652 29.3396 26.6545C29.4964 26.2997 29.645 25.8132 29.787 25.1951C29.9295 24.5774 30.0002 24.0768 30.0002 23.6932C30.0007 23.4937 29.9793 23.3448 29.9364 23.2445Z" fill="white"/>
</svg>
