<svg width="30" height="30" viewBox="0 0 30 30" fill="none" xmlns="http://www.w3.org/2000/svg">
<g clip-path="url(#clip0)">
<path d="M27.2243 15.1883C26.9143 13.8414 25.8126 12.8479 24.4865 12.7C21.3471 12.3493 18.1681 12.3477 15.0045 12.3493C11.8397 12.3477 8.66124 12.3493 5.52086 12.7C4.1955 12.8482 3.09445 13.8417 2.78478 15.1883C2.34343 17.1062 2.33813 19.1998 2.33813 21.1746C2.33813 23.1494 2.33813 25.2427 2.77948 27.1606C3.08915 28.5071 4.1902 29.5006 5.51623 29.6488C8.65594 29.9999 11.8344 30.0012 14.9989 29.9999C18.1638 30.0015 21.3415 29.9999 24.4822 29.6488C25.8076 29.5006 26.9093 28.5071 27.219 27.1606C27.66 25.2427 27.6623 23.1494 27.6623 21.1746C27.662 19.1994 27.6653 17.1062 27.2243 15.1883ZM9.56147 16.6748H7.72859V26.4142H6.02606V16.6748H4.2266V15.0794H9.56147V16.6748ZM14.1857 26.4145H12.6542V25.4931C12.0458 26.1905 11.4681 26.5306 10.9054 26.5306C10.4121 26.5306 10.0726 26.3308 9.91944 25.903C9.83607 25.6476 9.78446 25.2433 9.78446 24.6471V17.9687H11.3146V24.1869C11.3146 24.5456 11.3146 24.7318 11.3285 24.7821C11.3652 25.0197 11.4814 25.1401 11.6865 25.1401C11.9935 25.1401 12.3144 24.9035 12.6539 24.4235V17.9687H14.1854L14.1857 26.4145ZM19.9996 23.8796C19.9996 24.6607 19.947 25.2235 19.8448 25.5814C19.6403 26.2097 19.2311 26.5306 18.6223 26.5306C18.0777 26.5306 17.5524 26.2282 17.0405 25.5963V26.4148H15.5104V15.0794H17.0405V18.7813C17.5348 18.1728 18.0595 17.8652 18.6223 17.8652C19.2311 17.8652 19.6406 18.1857 19.8448 18.818C19.9477 19.1578 19.9996 19.7162 19.9996 20.5159V23.8796ZM25.7752 22.4705H22.7145V23.9676C22.7145 24.7494 22.9703 25.1398 23.4963 25.1398C23.8731 25.1398 24.0925 24.935 24.1798 24.526C24.1941 24.443 24.2142 24.1029 24.2142 23.4892H25.7755V23.7125C25.7755 24.2058 25.7566 24.5456 25.7427 24.6984C25.6915 25.0372 25.571 25.3446 25.3854 25.6152C24.9616 26.2286 24.3337 26.531 23.5344 26.531C22.7337 26.531 22.1243 26.2428 21.682 25.6661C21.3574 25.2433 21.1907 24.5777 21.1907 23.6801V20.722C21.1907 19.8191 21.3385 19.1588 21.6638 18.732C22.1058 18.154 22.7149 17.8661 23.4966 17.8661C24.2645 17.8661 24.8733 18.154 25.3021 18.732C25.6227 19.1588 25.7758 19.8191 25.7758 20.722V22.4705H25.7752Z" fill="white"/>
<path d="M23.4829 19.2427C22.9714 19.2427 22.715 19.6334 22.715 20.4142V21.1957H24.2451V20.4142C24.2448 19.6334 23.989 19.2427 23.4829 19.2427Z" fill="white"/>
<path d="M17.8034 19.2427C17.5513 19.2427 17.2959 19.3618 17.0402 19.6149V24.7625C17.2956 25.0186 17.5513 25.1396 17.8034 25.1396C18.2448 25.1396 18.4691 24.7625 18.4691 23.9999V20.395C18.4691 19.6334 18.2448 19.2427 17.8034 19.2427Z" fill="white"/>
<path d="M18.6585 11.5705C19.2226 11.5705 19.8095 11.2278 20.4252 10.5224V11.4534H21.9719V2.91797H20.4252V9.44156C20.0825 9.92592 19.7576 10.1655 19.4482 10.1655C19.2411 10.1655 19.1194 10.043 19.0856 9.80318C19.0668 9.75256 19.0668 9.56431 19.0668 9.20203V2.91797H17.525V9.6672C17.525 10.27 17.5766 10.6779 17.662 10.9363C17.8175 11.3687 18.1606 11.5705 18.6585 11.5705Z" fill="white"/>
<path d="M7.89106 6.81474V11.4535H9.60616V6.81474L11.6693 0H9.93502L8.76482 4.49783L7.54731 0H5.74255C6.10417 1.06168 6.48034 2.12865 6.84195 3.19133C7.39215 4.78865 7.73556 5.99292 7.89106 6.81474Z" fill="white"/>
<path d="M13.9679 11.5707C14.7428 11.5707 15.3449 11.2793 15.772 10.697C16.0966 10.2699 16.2521 9.59693 16.2521 8.68975V5.7009C16.2521 4.78843 16.0969 4.12145 15.772 3.69036C15.3449 3.10642 14.7431 2.81494 13.9679 2.81494C13.1971 2.81494 12.5952 3.10642 12.1671 3.69036C11.8386 4.12145 11.6831 4.78843 11.6831 5.7009V8.68975C11.6831 9.59693 11.8386 10.2699 12.1671 10.697C12.5949 11.2793 13.1971 11.5707 13.9679 11.5707ZM13.2298 5.3909C13.2298 4.60117 13.4693 4.20747 13.9679 4.20747C14.4665 4.20747 14.7054 4.60084 14.7054 5.3909V8.98122C14.7054 9.77095 14.4665 10.166 13.9679 10.166C13.4693 10.166 13.2298 9.77095 13.2298 8.98122V5.3909Z" fill="white"/>
</g>
<defs>
<clipPath id="clip0">
<rect width="30" height="30" fill="white"/>
</clipPath>
</defs>
</svg>
