<svg width="35" height="27" viewBox="0 0 35 27" fill="none" xmlns="http://www.w3.org/2000/svg">
<path d="M23.1704 12.7728L14.9673 7.64585C14.6511 7.44829 14.2527 7.43784 13.9267 7.61851C13.6007 7.79918 13.3984 8.14262 13.3984 8.51538V18.7693C13.3984 19.1421 13.6007 19.4854 13.9267 19.6662C14.0816 19.752 14.2528 19.7947 14.4238 19.7947C14.6126 19.7947 14.8012 19.7425 14.9672 19.6388L23.1704 14.5119C23.4702 14.3245 23.6523 13.9959 23.6523 13.6423C23.6523 13.2888 23.4702 12.9602 23.1704 12.7728ZM15.4492 16.9192V10.3654L20.6923 13.6423L15.4492 16.9192Z" fill="#BDBDBD"/>
<path d="M29.873 0.312012H5.12695C2.29995 0.312012 0 2.61196 0 5.43896V21.8452C0 24.6722 2.29995 26.9722 5.12695 26.9722H29.873C32.7001 26.9722 35 24.6722 35 21.8452V5.43896C35 2.61196 32.7001 0.312012 29.873 0.312012ZM32.9492 21.8452C32.9492 23.5414 31.5692 24.9214 29.873 24.9214H5.12695C3.43075 24.9214 2.05078 23.5414 2.05078 21.8452V5.43896C2.05078 3.74276 3.43075 2.36279 5.12695 2.36279H29.873C31.5692 2.36279 32.9492 3.74276 32.9492 5.43896V21.8452Z" fill="#BDBDBD"/>
</svg>
